<?xml version="1.0" encoding="UTF-8"?>
<svg id="Layer_1" xmlns="http://www.w3.org/2000/svg" width="715.6" height="267.9" version="1.1" viewBox="0 0 715.6 267.9">
  <!-- Generator: Adobe Illustrator 29.3.0, SVG Export Plug-In . SVG Version: 2.1.0 Build 146)  -->
  <defs>
    <style>
      .st0 {
        fill: #de1254;
      }
    </style>
  </defs>
  <path id="Title" class="st0" d="M135.9,153.2h-14.9c-6.4,0-8.3-.2-9.6-1.5s-1.3-2.4-1.8-5c0-.4-.2-.7-.2-1.1,0-2.2.2-2.4,3.7-6.1,4.4-4.6,6.1-12.7,6.1-28.5,0-23.7-5.9-34-19.7-34s-14.2,3.7-17.1,9.9c-2.6,5.7-3.5,11.6-3.5,24.1s1.3,23,6.8,27.6c2,1.8,3.1,2.8,3.3,3.3.7.9,1.1,3.1,1.1,4.8,0,4.8-2.4,6.6-9.6,6.6h-14.9c-6.4,0-8.3-.2-9.6-1.5-.7-.7-1.3-2.4-1.8-5v-1.1c0-2.2,0-2.4,3.5-6.1,4.4-4.6,6.1-12.7,6.1-28.5,0-23.5-5.9-34-19.3-34s-13.8,3.5-16.4,9c-2.2,5-2.8,9.6-2.8,19.7,0,18.8,2.2,27.2,8.8,34,2.2,2.2,2.8,3.3,2.8,5s-.2,1.1-.2,1.8c-.4,2.2-.9,3.5-1.3,4.2-1.1,1.1-3.3,2-6.1,2.2-1.8.2-5,.7-9.9.7h-4.6c-12.5,0-14.7-1.1-14.7-7.9s.2-2.4,2.6-4.4c1.8-1.5,3.1-3.3,3.7-4.8,2.6-5.3,3.9-14.5,3.9-25.9s-2.2-23.9-5.5-30l-3.3-5.9c-.7-.9-.9-1.5-.9-2.2,0-1.3.9-2.8,2.4-4.6,3.7-3.7,8.5-6.4,12.3-6.4s4.2.9,6.8,2.8c4.4,3.7,5.9,4.6,8.1,4.6s5.5-.9,8.8-2.4c10.1-4.6,12.3-5.3,17.1-5.3s14.2,2.6,19.3,5.9c3.3,2,5.5,3.1,6.4,3.1,2,0,5-1.1,9-3.3,2.2-1.3,4.2-2.2,5.7-2.8,4.2-1.5,11.6-2.8,16.7-2.8,8.3,0,15.1,3.5,18.6,9.6,2.6,4.4,3.1,7.2,3.1,16.4s0,8.1-.2,13.2c-.2,3.9-.2,8.1-.2,12.5,0,16,1.3,21,6.8,25.6,2,1.8,3.1,2.8,3.3,3.3.7.9,1.1,3.1,1.1,4.8,0,4.8-2.6,6.6-9.6,6.6ZM226.6,150.4c-2.4,2.6-4.6,3.9-6.4,3.9s-3.1-.9-4.6-1.8l-6.8-4.2c-2-1.3-4.2-2-6.1-2s-4.8.7-7.7,2l-11.6,4.8c-2.4.7-5.3,1.1-8.5,1.1-10.3,0-17.5-6.1-17.5-14.9s3.1-8.8,11.8-11c15.8-4.2,24.1-6.8,27-9.2,2.4-1.8,3.3-5.3,3.3-13.8,0-20.6-2.6-26.1-12.7-26.1s-11.4,2.2-17.8,6.1c-1.8.9-3.1,1.5-3.7,1.5s-2.2-.4-3.3-1.5c-2.2-1.5-3.9-4.2-3.9-5.9s1.1-3.3,3.1-5.5c7.7-8.3,17.5-12.5,28.9-12.5,16.4,0,26.7,9.2,26.7,24.1s-.2,7.7-.7,12.5c-.2,2.4-.4,5-.4,7.5,0,12.1,2.2,21.3,5.7,25l7.9,8.5c1.1,1.3,1.8,2.6,1.8,3.7,0,2-1.5,4.6-4.4,7.5ZM267.4,155c-4.8,0-9.4-.4-13.8-1.5-6.4-1.5-8.8-4.4-8.8-10.7s1.5-9.9,6.4-9.9c0,0,7.9,5.5,9,5.9,4.2,2.2,10.3,3.7,14,3.7,5.9,0,12.9-4.2,12.9-10.7s-2.4-8.5-12.9-14l-12.9-6.6c-12.3-6.4-16.7-12.1-16.7-21.9s1.5-10.1,4.2-14.2c6.1-9.6,17.3-14.2,34.2-14.2s20.8,8.3,20.8,15.6-2.2,9.2-8.3,9.2-3.7-.2-5.7-5c-2-4.6-9.2-8.5-15.3-8.5s-12.9,5-12.9,11.6,3.1,7.9,11,11.8l12.5,6.4c12.9,6.6,15.3,7.9,18.6,12.1,2.4,3.1,3.9,7.7,3.9,12.5,0,16.9-16.7,28.7-40.1,28.7ZM403.9,153.2h-14.9c-6.1,0-8.3-.2-9.4-1.5-.7-.7-1.3-2.4-1.8-5-.2-.4-.2-.7-.2-1.1,0-2.2.2-2.4,3.7-6.1,4.2-4.6,5.9-12.7,5.9-28.5s-.4-12.1-1.5-17.3c-2.6-12.3-7.9-16.7-19.5-16.7s-16.2,3.5-18.4,9c-1.8,4.2-2.2,9.6-2.2,21.7s.4,12.1,1.5,17.5c1.1,6.4,3.1,10.1,7.5,14.5,2.2,2.2,2.6,3.3,2.6,5s0,1.1-.2,1.8c-.2,2.2-.9,3.5-1.3,4.2-1.1,1.1-3.3,2-5.9,2.2-2,.2-5.3.7-10.1.7h-4.6c-12.5,0-14.7-1.1-14.7-7.9s.2-2.4,2.6-4.4c5.7-4.8,7.9-13.6,7.7-31.8l-.4-58.5c-.2-20.2-1.1-25-6.1-31.3l-3.9-5c-1.1-1.5-1.8-3.1-1.8-5,0-3.7,1.3-5.3,5.5-6.6,5.3-1.5,11-2.8,16.7-2.8h1.3c5.7,0,6.6,1.3,6.6,9.6v1.5c0,4.4-.2,14.9-.2,29.8v16.7c0,5.9,1.5,7.9,5.5,7.9s3.7-.2,5.9-.7c11.4-2.8,16.2-3.7,21.7-3.7,8.3,0,15.1,3.5,18.6,9.6,2.6,4.4,3.1,7.2,3.1,16.4s0,8.1-.2,13.2c-.2,3.9-.2,8.1-.2,12.5,0,16,1.3,20.8,6.8,25.6,1.8,1.5,3.1,2.8,3.3,3.3.4.9,1.1,3.1,1.1,4.8,0,4.8-2.6,6.6-9.9,6.6ZM449.1,153.4h-3.3l-11.8-.4c-3.5-.2-4.8-2-4.8-6.4s.2-2.4.9-3.1l3.7-5.3c3.1-4.4,5.5-17.1,5.5-29.1s-3.1-23.9-9.4-29.4c-1.5-1.3-1.8-1.8-1.8-3.5,0-5,1.3-6.4,8.8-9.4l11.4-4.6c1.1-.2,2-.4,2.8-.4,3.3,0,4.8,2.2,4.8,7s-.2,3.5-.4,5.5c-1.1,5.3-2,15.8-2,31.1v3.3c0,17.8,1.5,26.1,5.5,29.4l3.9,3.3c.7.4,1.1,2,1.3,3.9v1.3c0,5.7-2.2,6.8-15.1,6.8ZM446,29.8c-5.5,0-9.6-4.4-9.6-9.9s4.4-10.7,9.9-10.7,10.1,4.6,10.1,10.1-4.6,10.5-10.3,10.5ZM370,196.6l-9.9.2c-3.3,0-6.4,1.3-8.5,3.5-4.4,4.4-5.7,10.1-5.7,23.7s3.1,25.6,9,29.1l4.6,2.8c1.1.9,1.5,2.6,1.5,4.6s-.2,4.4-.9,4.8c-1.3,1.8-7,2.4-19.7,2.4-18.2,0-19.9-.7-19.9-7.5s.4-2.6,1.1-3.7c0-.2,1.1-1.3,3.1-3.5,4.4-5,6.1-12.9,6.1-27.6s-2-26.3-6.1-32.7c-2.2-3.5-3.1-5.3-3.1-6.6,0-2,1.8-4.6,4.8-6.8,3.7-2.6,7.5-4.6,9.2-4.6s3.3,1.1,5.7,3.1c3.7,3.1,6.8,4.6,9.4,4.6s5.7-1.1,9-2.8c4.6-2.6,8.3-3.9,11-3.9,4.4,0,7.5,4.6,7.5,10.7s-2,9.9-8.1,10.1ZM452.1,264.3c-2.4,2.6-4.6,3.9-6.4,3.9s-3.1-.9-4.6-1.8l-6.8-4.2c-2-1.3-4.2-2-6.1-2s-4.8.7-7.7,2l-11.6,4.8c-2.4.7-5.3,1.1-8.5,1.1-10.3,0-17.5-6.1-17.5-14.9s3.1-8.8,11.8-11c15.8-4.2,24.1-6.8,27-9.2,2.4-1.8,3.3-5.3,3.3-13.8,0-20.6-2.6-26.1-12.7-26.1s-11.4,2.2-17.8,6.1c-1.8.9-3.1,1.5-3.7,1.5s-2.2-.4-3.3-1.5c-2.2-1.5-3.9-4.2-3.9-5.9s1.1-3.3,3.1-5.5c7.7-8.3,17.5-12.5,28.9-12.5,16.4,0,26.7,9.2,26.7,24.1s-.2,7.7-.7,12.5c-.2,2.4-.4,5-.4,7.5,0,12.1,2.2,21.3,5.7,25l7.9,8.5c1.1,1.3,1.8,2.6,1.8,3.7,0,2-1.5,4.6-4.4,7.5ZM558.9,263.9c-1.5,2.8-4.2,4.6-6.6,4.6s-3.5-.9-6.6-2.6c-3.9-2.2-6.1-3.1-9-3.1s-5.5.7-9.4,2c-11.2,3.3-15.6,3.9-21.7,3.9-23.7,0-38.6-16.2-38.6-42.3s3.1-21.3,9.2-30.2c8.8-13.1,21.5-19.3,39.9-19.7,11.4-.2,13.6-2.6,13.6-14.9s-1.8-22.6-4.6-26.1l-4.6-5.9c-1.1-1.3-1.5-3.3-1.5-5s.4-3.9,1.1-5c2-2.4,11.4-4.6,19.5-4.6s9,.2,9,6.6-.2,2.6-.2,4.2c-.2,1.3-.4,4.6-.4,9.6l-.4,21.9-.2,45.8c0,13.6.4,24.3,1.3,32,.7,4.4,2.2,8.3,4.4,11.6l6.8,7.5c1.5,1.8,2.2,3.1,2.2,3.9s-1.1,2.4-3.1,5.9ZM513.1,190.5c-16.4,0-26.5,12.5-26.5,33.1s9,29.6,24.3,29.6h.9c5.7,0,11.2-2.2,14.7-5.7,5-5,6.6-12.1,6.6-27.8s-5.7-29.1-19.9-29.1ZM596.4,267.4h-3.3l-11.8-.4c-3.5-.2-4.8-2-4.8-6.4s.2-2.4.9-3.1l3.7-5.3c3.1-4.4,5.5-17.1,5.5-29.1s-3.1-23.9-9.4-29.4c-1.5-1.3-1.8-1.8-1.8-3.5,0-5,1.3-6.4,8.8-9.4l11.4-4.6c1.1-.2,2-.4,2.8-.4,3.3,0,4.8,2.2,4.8,7s-.2,3.5-.4,5.5c-1.1,5.3-2,15.8-2,31.1v3.3c0,17.8,1.5,26.1,5.5,29.4l3.9,3.3c.7.4,1.1,2,1.3,3.9v1.3c0,5.7-2.2,6.8-15.1,6.8ZM593.3,143.8c-5.5,0-9.6-4.4-9.6-9.9s4.4-10.7,9.9-10.7,10.1,4.6,10.1,10.1-4.6,10.5-10.3,10.5ZM667.4,268.9c-25.4,0-43.2-16.4-43.2-46.5s18.6-47.6,49.1-47.6,42.3,20.4,42.3,43.6-18.4,50.4-48.2,50.4ZM668,188.5c-14.9,0-25.9,13.6-25.9,31.8s12.5,34.2,28.9,34.2,26.1-11.4,26.1-29.6-9.9-36.4-29.1-36.4Z"/>
</svg>